<?xml version="1.0" encoding="utf-8"?>
<!-- Generator: Adobe Illustrator 24.0.1, SVG Export Plug-In . SVG Version: 6.00 Build 0)  -->
<svg version="1.1" xmlns="http://www.w3.org/2000/svg" xmlns:xlink="http://www.w3.org/1999/xlink" x="0px" y="0px"
	 viewBox="0 0 495 59" style="enable-background:new 0 0 495 59;" xml:space="preserve">
<style type="text/css">
	.st0{fill:none;}
	.st1{fill:#DDB976;}
</style>
<g id="Lager_1">
</g>
<g id="Lager_2">
	<g>
		<rect x="5" y="11" class="st0" width="502" height="55"/>
		<path class="st1" d="M46.2,35.7c2.5,2,3.8,4.6,3.8,7.7c0,3.7-1.7,6.7-5,8.8c-3.4,2.1-8.2,3.2-14.4,3.2c-1.4,0-2.5,0-3.5-0.1
			c-3.3-0.1-6.5-0.1-9.6-0.1c-4.3,0-7.6,0.1-9.9,0.2v-1.5c1.7-0.1,2.8-0.3,3.6-0.6s1.2-0.9,1.5-1.7c0.3-0.8,0.4-2.2,0.4-4V18.7
			c0-1.8-0.1-3.2-0.4-4c-0.3-0.8-0.8-1.4-1.5-1.7s-1.9-0.5-3.6-0.6V11c2.3,0.1,5.5,0.2,9.8,0.2l8.3-0.1c1,0,2.1-0.1,3.3-0.1
			c5.8,0,10.2,0.9,13,2.6c2.8,1.7,4.3,4.2,4.3,7.4c0,2.5-1,4.6-3.1,6.4c-2,1.8-5.4,3.2-9.9,4.1v0.1C39.3,32.4,43.6,33.7,46.2,35.7z
			 M25.5,13c-0.5,0.3-0.9,0.9-1.1,1.8c-0.2,0.9-0.3,2.2-0.3,3.9v12.8h2.4c3.1,0,5.3-0.9,6.5-2.6c1.2-1.7,1.8-4.1,1.8-7.2
			c0-3.2-0.5-5.5-1.6-7.1c-1.1-1.6-2.8-2.3-5.3-2.3C26.9,12.5,26,12.6,25.5,13z M35.8,51c1.7-1.8,2.5-4.4,2.5-7.9
			c0-3.4-0.8-6-2.5-7.7c-1.7-1.7-4.3-2.6-8-2.6h-3.6v14.8c0,1.8,0.1,3,0.3,3.9c0.2,0.8,0.6,1.4,1.1,1.7c0.5,0.3,1.4,0.5,2.5,0.5
			C31.5,53.7,34.2,52.8,35.8,51z"/>
		<path class="st1" d="M94.1,11v1.5c-1,0.4-2,1.3-3,2.4c-1,1.2-2.2,3-3.5,5.4l-8.3,15.3v11.6c0,1.9,0.2,3.4,0.5,4.3
			c0.3,0.9,1,1.5,1.9,1.8c0.9,0.3,2.4,0.5,4.4,0.6v1.5c-2.5-0.1-6.7-0.2-12.6-0.2c-5.9,0-10,0.1-12.2,0.2v-1.5
			c2-0.1,3.5-0.3,4.4-0.6c0.9-0.3,1.6-0.9,1.9-1.8c0.3-0.9,0.5-2.3,0.5-4.3v-7.9L55,16.6c-0.8-1.4-1.6-2.4-2.2-3
			c-0.6-0.6-1.3-0.9-2-1.1V11c3,0.2,5.9,0.4,8.6,0.4c3.8,0,8.1-0.1,12.8-0.4v1.5c-1.5,0-2.6,0.1-3.4,0.4c-0.8,0.3-1.2,0.8-1.2,1.6
			c0,0.6,0.3,1.4,0.8,2.3l9.9,17.3l4.7-8.5c1.8-3.4,2.8-6.2,2.8-8.4c0-3-1.8-4.5-5.5-4.7V11c3,0.1,5.7,0.2,8.2,0.2
			C90.9,11.2,92.7,11.1,94.1,11z"/>
		<path class="st1" d="M152.7,20.9c0,2.7,0.1,4.9,0.2,6.4h-1.7c-0.7-3.7-1.5-6.6-2.4-8.7c-0.9-2.1-2.2-3.6-3.6-4.6
			c-1.5-0.9-3.4-1.4-5.7-1.4h-2.3v34.2c0,2,0.2,3.5,0.6,4.5c0.4,0.9,1.1,1.6,2,1.9c1,0.3,2.6,0.6,4.7,0.7v1.5
			c-2.6-0.1-7-0.2-13.1-0.2c-6.2,0-10.4,0.1-12.8,0.2v-1.5c2.2-0.1,3.8-0.3,4.7-0.7c1-0.3,1.7-1,2-1.9c0.4-0.9,0.6-2.4,0.6-4.5V12.7
			h-2.3c-2.3,0-4.2,0.5-5.7,1.4c-1.5,0.9-2.7,2.5-3.6,4.6c-0.9,2.1-1.8,5-2.4,8.7h-1.7c0.1-1.6,0.2-3.7,0.2-6.4
			c0-2.9-0.2-6.2-0.5-9.9c4.2,0.1,11.4,0.2,21.5,0.2c10.3,0,17.5-0.1,21.8-0.2C152.8,14.7,152.7,18,152.7,20.9z"/>
		<path class="st1" d="M209.8,12.5c-1.7,0.1-2.8,0.3-3.6,0.6s-1.2,0.9-1.5,1.7c-0.3,0.8-0.4,2.2-0.4,4v28.9c0,1.9,0.1,3.2,0.4,4
			c0.3,0.8,0.8,1.4,1.5,1.7c0.8,0.3,1.9,0.5,3.5,0.6v1.5c-2.2-0.1-5.8-0.2-10.7-0.2c-4.9,0-8.7,0.1-11.5,0.2v-1.5
			c1.7-0.1,2.8-0.3,3.6-0.6c0.7-0.3,1.2-0.9,1.5-1.7c0.3-0.8,0.4-2.2,0.4-4V33.5h-18.8v14.2c0,1.9,0.1,3.2,0.4,4
			c0.3,0.8,0.8,1.4,1.5,1.7c0.8,0.3,1.9,0.5,3.5,0.6v1.5c-2.7-0.1-6.5-0.2-11.5-0.2c-4.8,0-8.3,0.1-10.7,0.2v-1.5
			c1.7-0.1,2.8-0.3,3.6-0.6s1.2-0.9,1.5-1.7c0.3-0.8,0.4-2.2,0.4-4V18.7c0-1.8-0.1-3.2-0.4-4c-0.3-0.8-0.8-1.4-1.5-1.7
			c-0.8-0.3-1.9-0.5-3.5-0.6V11c2.3,0.1,5.9,0.2,10.7,0.2c5,0,8.8-0.1,11.5-0.2v1.5c-1.7,0.1-2.8,0.3-3.6,0.6s-1.2,0.9-1.5,1.7
			c-0.3,0.8-0.4,2.2-0.4,4V32h18.8V18.7c0-1.8-0.1-3.2-0.4-4c-0.3-0.8-0.8-1.4-1.5-1.7c-0.8-0.3-1.9-0.5-3.5-0.6V11
			c2.7,0.1,6.5,0.2,11.5,0.2c4.9,0,8.4-0.1,10.7-0.2V12.5z"/>
		<path class="st1" d="M253.3,55.4c-3.2-0.1-8.5-0.2-16-0.2c-10,0-17.6,0.1-22.6,0.2v-1.5c1.7-0.1,2.8-0.3,3.6-0.6s1.2-0.9,1.5-1.7
			c0.3-0.8,0.4-2.2,0.4-4V18.7c0-1.8-0.1-3.2-0.4-4c-0.3-0.8-0.8-1.4-1.5-1.7c-0.8-0.3-1.9-0.5-3.5-0.6V11
			c5.1,0.1,12.6,0.2,22.6,0.2c6.8,0,11.7-0.1,14.5-0.2c-0.3,3.3-0.5,6.2-0.5,8.8c0,1.9,0.1,3.4,0.2,4.5h-1.7c-0.7-4.2-2-7.2-3.8-8.9
			c-1.8-1.8-4.3-2.7-7.4-2.7H236c-1.3,0-2.2,0.1-2.8,0.3c-0.6,0.2-1.1,0.7-1.4,1.3c-0.3,0.7-0.4,1.7-0.4,3.1v14.9h3.4
			c2.2,0,3.9-0.8,5.1-2.4c1.1-1.6,1.9-3.4,2.3-5.5h1.7c-0.1,1.7-0.2,3.6-0.2,5.7V33c0,2.2,0.1,5.1,0.4,8.6h-1.7
			c-0.3-2.3-1.1-4.2-2.3-5.7c-1.2-1.5-3-2.2-5.3-2.2h-3.4V49c0,1.4,0.1,2.4,0.4,3.1c0.3,0.7,0.7,1.1,1.4,1.3
			c0.6,0.2,1.6,0.3,2.8,0.3h3.1c3.5,0,6.2-1,8.1-3c2-2,3.3-5.4,4.1-10.1h1.7c-0.1,1.4-0.2,3.1-0.2,5.3
			C252.8,48.7,253,51.8,253.3,55.4z"/>
		<path class="st1" d="M316.1,32.6c3,2.4,4.5,5.3,4.5,8.6c0,4.5-1.8,8-5.3,10.5c-3.6,2.5-8.5,3.7-14.8,3.7c-1.4,0-2.6,0-3.6-0.1
			c-3.2-0.1-6.4-0.1-9.4-0.1c-5,0-8.8,0.1-11.2,0.2v-1.5c1.6-0.1,2.8-0.3,3.5-0.6c0.8-0.3,1.3-0.9,1.5-1.7c0.3-0.8,0.4-2.2,0.4-4
			V11.4c0-1.8-0.1-3.2-0.4-4c-0.3-0.8-0.8-1.4-1.5-1.7c-0.8-0.3-1.9-0.5-3.5-0.6V3.7c2.5,0.1,6.2,0.2,11.1,0.2l8.1-0.1
			c1,0,2.1-0.1,3.4-0.1c5.8,0,10.3,1,13.4,3.1c3.1,2.1,4.6,4.9,4.6,8.3c0,2.8-1.2,5.5-3.7,7.9c-2.5,2.4-6.1,4.1-10.9,5v0.1
			C308.5,28.7,313.2,30.2,316.1,32.6z M294.9,5.7c-0.6,0.3-1,0.9-1.3,1.8c-0.2,0.9-0.4,2.2-0.4,3.9v16.5h3.1c3.2,0,5.4-1.1,6.6-3.2
			c1.3-2.2,1.9-5,1.9-8.7c0-3.6-0.6-6.4-1.7-8.2c-1.1-1.8-3-2.7-5.4-2.7C296.5,5.2,295.5,5.3,294.9,5.7z M308.5,40.9
			c0-3.8-1-6.8-2.9-8.8c-1.9-2-5-3-9.2-3h-3.1v18.5c0,1.8,0.1,3,0.4,3.9c0.2,0.8,0.7,1.4,1.4,1.7c0.7,0.3,1.8,0.5,3.2,0.5
			C305.1,53.7,308.5,49.4,308.5,40.9z"/>
		<path class="st1" d="M363.4,12.6c3.7,1.8,6.6,4.4,8.6,7.8c2,3.4,3.1,7.5,3.1,12.3c0,4.7-1,8.8-3.1,12.4c-2.1,3.6-5,6.4-8.8,8.3
			c-3.7,2-8,3-12.8,3c-4.9,0-9.2-0.9-12.9-2.7c-3.7-1.8-6.6-4.4-8.6-7.8c-2-3.4-3.1-7.5-3.1-12.3c0-4.7,1-8.8,3.1-12.4
			c2.1-3.6,5-6.4,8.8-8.3c3.7-2,8-3,12.8-3C355.4,10,359.7,10.9,363.4,12.6z M343.5,14.1c-1.9,1.9-3.4,4.5-4.5,7.8
			c-1,3.3-1.6,7.1-1.6,11.4c0,4.3,0.6,8.2,1.8,11.5c1.2,3.3,2.8,5.9,4.8,7.6c2,1.8,4.2,2.7,6.7,2.7c2.5,0,4.8-0.9,6.7-2.8
			c1.9-1.9,3.4-4.5,4.5-7.8c1-3.3,1.6-7.1,1.6-11.4c0-4.3-0.6-8.2-1.8-11.5c-1.2-3.3-2.8-5.9-4.8-7.6c-2-1.8-4.2-2.7-6.7-2.7
			C347.7,11.3,345.5,12.2,343.5,14.1z"/>
		<path class="st1" d="M418.8,12.6c3.7,1.8,6.6,4.4,8.6,7.8c2,3.4,3.1,7.5,3.1,12.3c0,4.7-1,8.8-3.1,12.4c-2.1,3.6-5,6.4-8.8,8.3
			c-3.7,2-8,3-12.8,3c-4.9,0-9.2-0.9-12.9-2.7c-3.7-1.8-6.6-4.4-8.6-7.8c-2-3.4-3.1-7.5-3.1-12.3c0-4.7,1-8.8,3.1-12.4
			c2.1-3.6,5-6.4,8.8-8.3c3.7-2,8-3,12.8-3C410.8,10,415.1,10.9,418.8,12.6z M398.9,14.1c-1.9,1.9-3.4,4.5-4.5,7.8
			c-1,3.3-1.6,7.1-1.6,11.4c0,4.3,0.6,8.2,1.8,11.5c1.2,3.3,2.8,5.9,4.8,7.6c2,1.8,4.2,2.7,6.7,2.7c2.5,0,4.8-0.9,6.7-2.8
			c1.9-1.9,3.4-4.5,4.5-7.8c1-3.3,1.6-7.1,1.6-11.4c0-4.3-0.6-8.2-1.8-11.5c-1.2-3.3-2.8-5.9-4.8-7.6c-2-1.8-4.2-2.7-6.7-2.7
			C403.1,11.3,400.9,12.2,398.9,14.1z"/>
		<path class="st1" d="M482.5,52.2c0.7,0.6,1.5,1.2,2.6,1.7v1.5c-3.4-0.1-7.1-0.2-11.2-0.2c-3.5,0-6.8,0.1-9.9,0.2v-1.5
			c1.6,0,2.7-0.2,3.3-0.4c0.6-0.2,0.9-0.5,0.9-1s-0.3-1.1-0.8-1.9l-9.6-13.7c-0.8-1.2-1.7-2.1-2.5-2.7c-0.8-0.6-1.9-0.9-3.3-1v14.4
			c0,1.9,0.1,3.2,0.4,4c0.3,0.8,0.8,1.4,1.5,1.7s1.9,0.5,3.6,0.6v1.5c-2.5-0.1-6.1-0.2-10.8-0.2c-5.1,0-8.8,0.1-11.3,0.2v-1.5
			c1.7-0.1,2.8-0.3,3.6-0.6s1.2-0.9,1.5-1.7c0.3-0.8,0.4-2.2,0.4-4V18.7c0-1.8-0.1-3.2-0.4-4c-0.3-0.8-0.8-1.4-1.5-1.7
			c-0.8-0.3-1.9-0.5-3.5-0.6V11c2.5,0.1,6.3,0.2,11.3,0.2c4.7,0,8.3-0.1,10.8-0.2v1.5c-1.7,0.1-2.8,0.3-3.6,0.6s-1.2,0.9-1.5,1.7
			c-0.3,0.8-0.4,2.2-0.4,4v13.1c2.1-0.2,4-0.7,5.8-1.6s3.6-2.3,5.6-4.2l4.5-4.5c1.9-1.8,2.8-3.5,2.8-5c0-1.2-0.5-2.1-1.5-2.8
			c-1-0.7-2.3-1.1-3.9-1.2V11c3.5,0.1,7.3,0.2,11.2,0.2c2.6,0,4.7-0.1,6.5-0.2v1.4c-1.7,0.4-3.3,1.1-4.9,2c-1.6,0.9-3.2,2.3-5,4
			l-9,8.8l16,22.3C481,50.7,481.8,51.6,482.5,52.2z"/>
	</g>
	<g>
	</g>
	<g>
	</g>
	<g>
	</g>
	<g>
	</g>
	<g>
	</g>
	<g>
	</g>
	<g>
	</g>
	<g>
	</g>
	<g>
	</g>
	<g>
	</g>
	<g>
	</g>
	<g>
	</g>
	<g>
	</g>
	<g>
	</g>
	<g>
	</g>
</g>
</svg>
